<?xml version="1.0" standalone="no"?>
<!DOCTYPE svg PUBLIC "-//W3C//DTD SVG 20010904//EN"
 "http://www.w3.org/TR/2001/REC-SVG-20010904/DTD/svg10.dtd">
<svg version="1.0" xmlns="http://www.w3.org/2000/svg"
 width="894.000000pt" height="894.000000pt" viewBox="0 0 894.000000 894.000000"
 preserveAspectRatio="xMidYMid meet">
<metadata>
Created by potrace 1.14, written by Peter Selinger 2001-2017
</metadata>
<g transform="translate(0.000000,894.000000) scale(0.100000,-0.100000)"
fill="#000000" stroke="none">
<path d="M0 4470 l0 -4470 4470 0 4470 0 0 4470 0 4470 -4470 0 -4470 0 0
-4470z m4602 4009 c155 -32 298 -148 362 -295 34 -77 -7 -114 -113 -104 -44 4
-61 2 -61 -6 0 -7 14 -15 31 -19 41 -9 32 -16 -12 -9 -38 6 -65 44 -46 63 8 8
8 11 0 11 -16 0 -22 -22 -12 -41 5 -11 3 -16 -6 -16 -8 0 -11 5 -8 11 4 7 2 8
-5 1 -5 -5 -33 -50 -62 -100 l-51 -90 37 35 c26 25 38 31 41 21 5 -11 7 -11
14 0 7 12 9 11 9 -1 0 -13 19 -15 120 -12 99 3 120 6 120 18 0 8 5 12 10 9 6
-4 10 7 10 25 0 29 1 30 16 15 13 -13 15 -27 9 -73 -22 -177 -124 -325 -279
-401 -77 -38 -133 -50 -221 -51 -213 0 -403 128 -477 322 -24 63 -39 173 -28
201 5 12 9 20 10 17 0 -3 7 -23 14 -45 11 -32 19 -40 39 -40 14 -1 24 2 21 6
-6 10 17 17 39 11 15 -4 16 -7 5 -13 -9 -6 -7 -9 9 -9 12 0 23 4 25 8 2 5 22
12 46 16 29 4 41 3 37 -4 -3 -5 -15 -10 -26 -10 -10 0 -19 -5 -19 -11 0 -8 37
-4 46 5 1 0 15 19 30 42 16 23 44 63 63 89 19 26 29 45 23 41 -6 -3 -15 1 -20
10 -8 15 -10 15 -15 0 -4 -10 -3 -15 3 -11 16 10 12 -11 -5 -25 -8 -7 -13 -16
-10 -20 3 -5 1 -11 -4 -14 -5 -3 -11 1 -15 9 -3 8 -10 15 -16 15 -6 0 -8 -4
-5 -10 3 -5 1 -18 -5 -27 -9 -16 -10 -15 -5 5 7 23 3 25 -45 24 -20 -1 -21 0
-5 5 36 9 40 23 7 23 -18 0 -32 -4 -32 -9 0 -5 -11 -11 -25 -13 -13 -3 -24 -2
-23 1 2 18 -4 22 -16 12 -12 -10 -19 -8 -35 8 -12 12 -30 21 -40 21 -85 0 43
223 178 309 108 70 248 96 373 70z m-1199 -215 c84 -22 145 -54 209 -113 68
-62 106 -117 129 -183 15 -46 15 -54 3 -74 -9 -13 -11 -25 -6 -28 5 -3 13 -23
17 -43 6 -32 9 -35 15 -18 16 37 11 -108 -5 -170 -57 -218 -263 -375 -493
-375 -184 0 -369 116 -447 282 -50 105 -72 249 -44 288 9 13 10 12 5 -2 -3
-10 -1 -18 4 -18 6 0 10 11 10 24 0 14 5 28 10 31 7 4 7 12 0 25 -17 31 -12
59 22 122 110 206 346 311 571 252z m2412 -15 c107 -20 208 -76 282 -158 45
-51 91 -130 98 -171 5 -32 3 -37 -29 -57 -39 -25 -73 -32 -43 -9 24 19 21 30
-4 12 -13 -9 -33 -12 -55 -9 -39 6 -84 -3 -84 -18 0 -6 5 -7 12 -3 7 4 8 3 4
-5 -6 -9 -11 -9 -22 0 -16 13 -10 29 12 29 8 0 14 5 14 10 0 20 -16 9 -68 -44
-50 -51 -66 -75 -39 -60 7 4 9 3 4 -2 -5 -5 -14 -9 -20 -9 -25 0 -16 -32 18
-70 20 -22 33 -32 29 -22 -6 16 4 17 117 18 68 1 131 2 139 3 10 1 17 16 21
43 3 24 8 46 12 49 17 17 20 -13 10 -95 -15 -120 -57 -205 -144 -292 -102
-103 -212 -148 -360 -149 -209 0 -405 137 -475 333 -19 52 -34 178 -21 170 6
-3 8 5 5 20 -3 15 -1 24 3 21 5 -3 9 -20 9 -37 0 -25 3 -29 11 -17 8 11 9 6 4
-20 -5 -26 -4 -31 4 -20 7 10 11 11 11 3 0 -10 32 -13 125 -13 117 0 144 -7
113 -27 -7 -4 -19 -17 -27 -28 -14 -20 41 35 88 88 20 22 22 29 11 42 -7 8
-17 12 -23 8 -6 -4 -7 -1 -2 7 8 13 -86 110 -107 110 -6 0 7 -14 28 -32 22
-17 30 -28 19 -24 -11 5 -27 9 -35 11 -8 1 -14 8 -12 14 2 11 -73 17 -141 13
-16 -1 -26 2 -23 7 3 5 -2 8 -12 7 -31 -2 -27 58 8 121 62 110 157 190 275
231 95 34 163 39 260 21z m-935 -189 c0 -5 -4 -10 -9 -10 -6 0 -13 5 -16 10
-3 6 1 10 9 10 9 0 16 -4 16 -10z m-127 -17 c-7 -2 -19 -2 -25 0 -7 3 -2 5 12
5 14 0 19 -2 13 -5z m-489 -78 c-4 -8 -11 -12 -16 -9 -6 4 -5 10 3 15 19 12
19 11 13 -6z m1076 -115 c0 -5 -7 -10 -15 -10 -8 0 -15 5 -15 10 0 6 7 10 15
10 8 0 15 -4 15 -10z m221 -128 c-11 -21 -41 -48 -41 -37 0 7 42 54 48 55 1 0
-2 -8 -7 -18z m356 -19 c0 -16 -2 -22 -4 -15 -3 6 -9 9 -15 6 -5 -3 -4 3 4 15
7 12 13 21 14 21 1 0 1 -12 1 -27z m-3576 -27 c88 -19 174 -63 240 -124 58
-53 118 -144 123 -184 1 -13 6 -30 11 -38 5 -9 0 -20 -16 -33 -26 -22 -138
-77 -166 -82 -10 -2 -19 -4 -21 -4 -1 -1 2 -10 8 -20 5 -11 18 -18 28 -17 9 2
33 6 54 10 26 5 40 2 51 -9 12 -11 17 -12 20 -2 3 8 10 6 21 -8 l17 -20 -4 20
c-2 11 4 34 12 50 l16 30 3 -65 c11 -206 -118 -401 -319 -480 -77 -31 -234
-39 -315 -15 -178 51 -312 189 -359 370 -15 61 -18 147 -6 200 7 28 8 27 16
-20 5 -27 8 -54 6 -58 -1 -5 12 -6 28 -2 18 4 32 2 36 -5 6 -9 10 -9 16 1 4 8
26 14 48 14 37 0 41 -2 42 -25 l1 -25 7 25 c4 14 11 39 15 55 7 28 6 29 -9 14
-15 -15 -21 -14 -73 13 -80 42 -112 67 -112 87 0 27 37 106 73 157 17 24 57
65 89 89 125 99 267 133 419 101z m4550 -52 c125 -37 228 -116 295 -226 33
-53 56 -147 33 -133 -5 4 -9 2 -9 -2 0 -15 -63 -34 -71 -22 -4 7 -11 9 -17 5
-6 -4 -29 -4 -51 0 -31 5 -39 10 -36 25 2 10 -1 22 -7 25 -7 4 -8 2 -4 -4 4
-7 0 -12 -11 -13 -16 0 -16 -1 2 -9 14 -6 15 -9 5 -10 -12 0 -11 -3 3 -11 9
-5 17 -15 17 -21 0 -7 -5 -6 -15 2 -13 11 -15 -1 -14 -96 1 -60 4 -99 7 -88 6
20 15 22 99 23 68 2 92 -1 96 -11 2 -7 2 1 0 17 -3 20 -1 26 5 17 7 -10 11 -2
16 27 3 23 11 41 16 41 15 0 12 -76 -5 -149 -60 -252 -311 -421 -566 -381
-245 38 -433 250 -427 484 0 39 3 56 5 39 2 -18 9 -33 14 -33 5 0 9 -6 8 -12
-1 -7 -1 -24 0 -38 2 -25 2 -25 15 5 l14 30 -3 -40 c-1 -22 0 -30 2 -17 4 23
7 23 80 20 68 -4 76 -3 83 16 7 16 9 9 11 -29 2 -27 5 4 9 70 5 114 3 146 -7
118 -6 -18 -23 -16 -23 2 0 19 -4 19 -42 -1 -26 -14 -30 -14 -25 -1 4 11 0 13
-14 10 -12 -3 -18 -11 -15 -19 7 -18 -8 -18 -24 0 -6 8 -21 16 -33 18 -60 8
-6 152 92 248 59 57 156 112 226 129 66 15 206 13 266 -5z m-5307 -860 c127
-32 247 -125 312 -240 47 -84 45 -114 -8 -150 -26 -17 -59 -29 -83 -31 -58 -3
-85 -13 -85 -32 0 -10 -3 -12 -8 -5 -4 6 -14 14 -22 17 -11 4 -9 6 6 6 11 1
29 8 40 17 19 15 19 16 -1 9 -11 -3 -32 -9 -46 -12 -21 -4 -25 -9 -21 -26 5
-19 2 -20 -41 -14 -46 7 -66 -6 -27 -16 27 -7 26 -41 -2 -60 -19 -13 -20 -16
-6 -16 9 -1 20 4 23 9 4 6 11 8 16 5 18 -12 48 5 42 23 -5 14 -3 13 9 -2 13
-17 29 -19 124 -20 60 -1 112 -5 116 -11 4 -5 8 5 8 23 0 17 4 32 9 32 5 0 12
8 14 18 3 9 5 -10 6 -43 5 -304 -319 -549 -622 -470 -167 44 -296 159 -356
318 -25 70 -40 207 -22 207 6 0 14 -8 17 -17 15 -50 23 -54 114 -58 30 -1 60
-3 65 -5 21 -5 44 1 59 16 16 15 17 15 20 -7 0 -6 23 -12 50 -13 45 -2 47 -1
27 12 -29 20 -27 50 4 62 39 15 30 20 -25 13 -40 -5 -50 -3 -50 9 0 8 6 20 13
27 10 10 9 11 -3 7 -26 -10 -75 9 -75 28 0 10 -8 24 -19 31 -10 8 -15 19 -10
26 4 8 3 10 -4 5 -14 -9 -9 -49 6 -54 7 -2 12 -9 12 -16 0 -7 10 -18 23 -25
13 -7 15 -9 4 -6 -10 3 -27 0 -38 -5 -13 -7 -19 -7 -19 0 0 5 -10 10 -21 10
-25 0 -98 38 -116 60 -19 24 -15 48 19 114 106 201 349 307 572 250z m6056
-56 c75 -19 149 -59 208 -112 95 -87 165 -217 133 -249 -8 -8 -11 -5 -11 14
-1 23 -1 23 -15 5 -11 -15 -15 -16 -15 -5 0 8 6 21 13 28 10 11 10 13 0 7 -8
-5 -13 -1 -14 11 0 14 -2 14 -9 -4 -10 -25 -15 -26 -177 -23 -53 1 -83 -3 -83
-9 0 -6 -7 -11 -15 -11 -8 0 -15 5 -15 10 0 19 -19 10 -27 -12 -6 -17 -9 -5
-14 47 -5 59 -6 51 -7 -53 l-2 -122 30 -7 c40 -8 43 -15 25 -59 -8 -20 -13
-39 -11 -41 2 -2 11 15 20 39 16 42 18 43 55 40 38 -4 39 -4 56 -70 10 -37 21
-71 26 -76 5 -5 4 8 -2 28 -12 44 -8 53 14 31 20 -19 31 -19 23 0 -3 8 -1 15
3 15 5 0 11 -7 14 -15 4 -8 18 -14 34 -13 15 0 40 -2 56 -6 24 -6 29 -2 41 26
8 18 20 53 28 78 l13 45 3 -47 c7 -105 -53 -249 -143 -341 -99 -102 -215 -149
-360 -149 -159 0 -296 63 -392 181 -72 88 -120 218 -111 301 l4 35 14 -45 c8
-25 22 -58 32 -74 14 -25 18 -27 24 -13 5 14 9 15 20 6 11 -9 14 -8 14 2 1 9
6 7 16 -6 16 -20 16 -20 9 3 -6 22 -5 23 14 13 12 -7 21 -17 21 -24 0 -7 4 -6
10 3 5 8 9 22 9 30 0 10 -3 8 -8 -4 -7 -19 -8 -19 -13 1 -5 17 -2 21 14 18 10
-2 22 2 25 10 3 8 11 15 18 15 7 0 15 18 19 40 6 39 7 40 47 40 l40 0 -2 53
c-3 58 5 81 24 71 7 -4 8 -3 4 1 -4 5 -27 10 -50 11 -23 1 -36 -1 -29 -3 6 -3
12 -9 12 -15 0 -6 -8 -4 -18 5 -14 13 -37 16 -109 14 -89 -2 -91 -1 -100 23
l-10 25 1 -28 c1 -17 8 -29 19 -33 9 -3 17 -9 17 -14 0 -5 -13 -2 -30 6 -38
19 -38 32 1 105 108 202 341 303 569 247z m-3000 -18 c760 -66 1391 -470 1773
-1135 125 -218 229 -527 262 -782 l7 -53 -594 0 -595 0 -12 43 c-70 235 -231
454 -435 588 -104 69 -256 131 -375 153 -107 20 -295 20 -401 0 -321 -60 -593
-267 -741 -561 -26 -52 -55 -124 -65 -159 l-19 -64 -594 0 -594 0 7 53 c57
457 293 933 630 1270 459 459 1115 702 1746 647z m-3475 -300 c3 -6 -1 -7 -9
-4 -18 7 -21 14 -7 14 6 0 13 -4 16 -10z m6768 -15 c-3 -9 -8 -14 -10 -11 -3
3 -2 9 2 15 9 16 15 13 8 -4z m-6724 -65 c-10 -7 -49 -2 -49 5 0 2 14 3 31 3
17 -1 25 -4 18 -8z m451 -70 c0 -5 -5 -10 -11 -10 -5 0 -7 5 -4 10 3 6 8 10
11 10 2 0 4 -4 4 -10z m-499 -616 c88 -26 150 -63 215 -128 63 -64 110 -138
98 -158 -4 -6 -3 -8 3 -5 12 8 23 -14 23 -46 0 -27 -49 -54 -62 -34 -6 9 -8 9
-8 0 0 -7 -8 -13 -18 -13 -10 0 -24 6 -31 13 -11 10 -14 9 -18 -1 -3 -6 -8
-10 -12 -8 -11 7 -93 8 -123 2 -16 -4 -29 -2 -29 4 -1 5 -3 15 -4 20 -1 6 -3
16 -4 23 -1 7 -7 4 -16 -7 -8 -11 -13 -28 -9 -38 4 -13 1 -16 -10 -12 -19 7
-21 25 -4 42 9 9 9 12 0 12 -7 0 -12 -6 -12 -12 0 -9 -4 -8 -11 2 -9 12 -10
12 -5 -4 4 -11 2 -23 -5 -26 -17 -11 19 -85 69 -143 23 -27 42 -53 42 -58 0
-6 5 -7 10 -4 6 4 8 10 5 15 -3 4 1 10 9 13 10 4 12 -1 9 -16 -4 -17 -2 -19 5
-7 8 10 33 14 89 16 43 0 86 4 95 8 12 6 17 2 20 -16 3 -17 9 -9 23 35 10 31
22 57 27 57 13 0 9 -78 -8 -144 -82 -318 -430 -475 -724 -326 -155 78 -271
257 -270 419 1 51 2 54 15 37 8 -11 15 -28 15 -37 0 -34 39 -50 105 -43 33 4
63 12 67 18 5 6 8 0 9 -14 1 -14 5 1 10 32 10 67 35 120 79 166 18 18 30 35
27 38 -3 3 -11 -2 -18 -11 -61 -71 -103 -104 -65 -50 13 19 11 20 -47 22 -36
2 -66 -2 -76 -10 -12 -9 -13 -9 -7 0 5 10 1 11 -18 3 -21 -8 -24 -7 -19 7 5
13 3 13 -14 5 -25 -14 -33 -7 -33 30 0 70 104 208 205 273 109 70 282 95 406
59z m6871 -55 c77 -16 173 -66 235 -122 63 -58 106 -126 97 -153 -5 -15 -4
-16 4 -4 9 12 13 9 21 -13 15 -38 14 -43 -9 -44 -11 -1 -20 2 -20 8 0 5 5 9
10 9 6 0 10 5 10 10 0 6 -8 10 -17 8 -14 -2 -17 3 -15 22 2 19 0 22 -8 10 -5
-8 -10 -24 -10 -35 0 -11 -5 -27 -11 -35 -9 -12 -10 -11 -6 6 3 13 -1 21 -9
21 -8 0 -14 -5 -14 -10 0 -6 -5 -6 -12 0 -7 6 -40 9 -73 8 -33 -1 -70 2 -82 6
-15 6 -27 4 -37 -6 -15 -16 -30 -20 -23 -7 3 4 1 16 -4 27 -5 13 -8 -3 -8 -47
-1 -36 -4 -73 -7 -82 -9 -23 26 -21 82 5 30 15 52 34 67 60 12 21 25 39 28 39
13 0 29 -54 29 -99 0 -48 -29 -106 -80 -160 l-23 -23 24 7 c35 11 81 35 102
53 25 22 30 11 12 -31 -11 -27 -12 -37 -2 -40 7 -3 5 -6 -5 -6 -22 -1 -25 -41
-3 -41 9 0 12 6 8 18 -5 14 -3 15 7 5 11 -10 16 -9 27 5 8 9 11 11 7 3 -5 -11
-3 -13 10 -8 13 5 17 3 13 -6 -3 -7 3 -13 13 -13 15 0 16 4 9 18 -7 13 -6 17
2 16 13 -3 38 56 49 117 7 38 8 37 9 -21 4 -207 -168 -420 -379 -468 -126 -29
-245 -15 -356 40 -148 74 -257 236 -267 396 -3 35 -3 52 0 38 3 -14 8 -27 11
-30 14 -10 32 -50 32 -69 0 -24 16 -36 23 -19 3 9 8 6 13 -7 4 -11 16 -28 25
-38 16 -17 17 -17 23 0 4 9 4 14 0 10 -8 -8 -34 11 -34 25 0 6 8 4 18 -3 15
-13 16 -12 3 3 -7 10 -18 15 -24 11 -6 -3 -7 -1 -3 5 4 6 12 9 19 6 7 -2 13 4
14 16 2 22 -12 27 -20 8 -4 -10 -6 -10 -6 -1 -1 7 9 18 22 24 12 6 19 8 15 4
-7 -8 31 -42 42 -38 3 1 13 -6 23 -15 18 -16 18 -16 1 15 -10 17 -22 29 -26
27 -3 -2 -10 1 -14 7 -5 8 -3 9 6 4 10 -6 11 -3 6 16 -26 85 -13 181 32 233
16 18 16 19 -1 13 -12 -4 -16 -3 -11 4 4 8 -1 9 -17 3 -39 -12 -88 -11 -93 3
-3 7 -3 21 0 31 2 9 -1 7 -7 -5 -7 -13 -16 -23 -21 -23 -4 0 -8 -9 -8 -19 0
-11 -5 -23 -10 -26 -17 -10 -1 43 29 99 14 26 50 74 81 106 116 120 295 174
462 139z m-6845 -304 c0 -8 -4 -12 -9 -9 -5 3 -6 10 -3 15 9 13 12 11 12 -6z
m6306 -10 c-3 -9 -8 -14 -10 -11 -3 3 -2 9 2 15 9 16 15 13 8 -4z m-6862 -32
c13 -16 12 -17 -3 -4 -17 13 -22 21 -14 21 2 0 10 -8 17 -17z m100 -6 c-10 -9
-11 -8 -5 6 3 10 9 15 12 12 3 -3 0 -11 -7 -18z m419 -8 c0 -6 -4 -7 -10 -4
-5 3 -10 11 -10 16 0 6 5 7 10 4 6 -3 10 -11 10 -16z m-400 -23 c0 -3 -4 -8
-10 -11 -5 -3 -10 -1 -10 4 0 6 5 11 10 11 6 0 10 -2 10 -4z m3935 -39 c278
-91 475 -344 492 -633 25 -421 -322 -773 -742 -751 -188 10 -333 75 -471 213
-65 65 -89 98 -126 175 -63 127 -82 221 -75 358 10 189 72 326 207 461 92 92
172 142 290 179 93 29 102 30 230 27 91 -3 131 -9 195 -29z m-3574 -777 c136
-25 283 -135 347 -258 37 -74 39 -91 12 -115 -19 -16 -20 -16 -20 6 0 13 -3
17 -8 11 -9 -15 -92 -23 -92 -9 0 5 -13 10 -30 10 -16 0 -30 -3 -30 -7 0 -5 6
-8 13 -8 24 0 66 -25 77 -45 9 -18 9 -17 4 5 -4 14 -3 22 1 18 13 -12 15 -121
3 -158 -8 -25 -8 -35 1 -38 6 -2 9 -7 6 -12 -3 -4 -1 -18 3 -31 l9 -23 5 22
c4 12 2 20 -3 16 -14 -8 -11 12 4 25 8 6 17 8 21 4 4 -4 4 0 1 8 -3 9 -13 16
-21 16 -9 0 -13 -6 -9 -16 5 -13 4 -13 -6 -4 -17 17 8 48 26 33 6 -5 16 -6 20
-2 5 4 5 2 1 -5 -3 -6 -2 -14 3 -17 5 -4 12 2 15 11 3 10 4 6 2 -9 -2 -16 1
-28 5 -28 8 0 14 31 10 53 -1 4 7 22 16 40 l18 32 3 -36 c2 -20 -4 -66 -12
-103 -54 -232 -260 -396 -496 -396 -268 0 -501 224 -500 480 l1 55 14 -34 c8
-18 12 -38 8 -44 -3 -6 -1 -7 5 -3 7 4 12 1 12 -6 0 -10 3 -9 11 2 8 12 10 9
6 -13 -5 -31 7 -25 17 8 3 11 3 0 1 -25 -3 -40 -3 -42 6 -17 12 30 29 36 30
10 0 -15 2 -14 9 3 14 35 61 66 93 61 22 -3 27 0 22 12 -3 8 -3 12 1 8 9 -9
45 23 39 33 -3 4 1 7 8 7 6 -1 29 3 51 7 37 8 38 9 32 45 -3 21 -2 30 3 23 13
-21 22 43 10 70 -9 22 -9 22 -5 -2 3 -14 2 -30 -2 -35 -4 -6 -56 -8 -136 -5
-120 5 -149 2 -147 -14 1 -3 -1 -6 -4 -6 -3 0 -12 0 -20 0 -8 0 -22 11 -31 25
-15 23 -14 28 10 81 49 106 125 185 231 239 103 52 208 67 326 45z m6917 -65
c112 -27 214 -90 282 -176 23 -29 39 -58 36 -66 -3 -8 -2 -12 2 -9 10 6 42
-57 42 -82 -1 -15 -2 -15 -16 3 -8 11 -12 25 -9 33 2 7 1 11 -4 8 -5 -3 -12 1
-15 10 -4 9 -9 14 -12 11 -3 -3 3 -18 13 -34 17 -27 17 -28 -1 -14 -12 10 -45
15 -102 16 l-84 2 -1 -46 c-1 -25 -3 -55 -4 -66 -1 -11 -2 -30 -3 -43 -2 -21
-6 -23 -54 -20 l-53 3 -5 90 -4 90 -6 -90 -5 -90 -50 0 -50 0 -5 100 -4 100
-6 -100 -5 -100 -50 0 c-44 0 -50 3 -56 25 l-6 25 -4 -25 c-4 -22 -9 -25 -55
-28 l-51 -3 -7 38 c-3 21 -6 71 -6 112 0 78 -9 94 -12 22 -1 -38 -3 -40 -13
-22 -6 12 -14 18 -18 15 -4 -4 -7 -2 -7 4 0 6 -19 9 -50 8 -29 -2 -50 1 -50 7
0 5 -8 1 -17 -10 -10 -11 -26 -19 -35 -17 -10 1 -18 -3 -18 -9 0 -5 -3 -8 -6
-5 -3 3 5 29 17 57 19 45 24 50 38 39 14 -12 14 -11 2 4 -11 15 -9 23 18 56
118 150 323 221 509 177z m-4578 -106 c0 -33 88 -227 136 -299 150 -228 349
-371 624 -450 107 -31 323 -38 443 -16 382 72 682 330 812 699 l28 77 594 0
594 0 -7 -47 c-98 -693 -516 -1300 -1130 -1641 -598 -332 -1342 -366 -1968
-90 -605 266 -1070 798 -1247 1426 -26 95 -69 304 -69 339 0 11 108 13 595 13
418 0 595 -3 595 -11z m-2012 -221 c-2 -6 -10 -13 -16 -14 -7 -1 -8 0 -2 3 5
2 8 9 4 14 -3 5 0 9 6 9 7 0 10 -5 8 -12z m6922 -12 c0 -3 -4 -8 -10 -11 -5
-3 -10 -1 -10 4 0 6 5 11 10 11 6 0 10 -2 10 -4z m45 -281 c-22 -97 -68 -176
-142 -245 -103 -96 -211 -140 -348 -140 -258 0 -475 194 -501 447 -5 56 -5 57
9 28 8 -16 25 -58 38 -92 l24 -63 18 33 18 32 -6 -30 c-3 -17 -2 -25 3 -18 9
14 62 20 80 9 7 -4 12 -2 12 3 0 18 18 12 23 -6 3 -10 6 0 7 22 l2 40 13 -50
13 -50 1 86 c1 120 11 129 135 129 77 0 98 -3 118 -19 24 -19 24 -19 36 0 11
17 22 19 94 17 52 -1 86 -7 94 -16 9 -9 14 -41 15 -95 1 -52 4 -71 8 -52 l6
30 17 -23 c9 -13 17 -19 19 -13 3 6 27 7 67 2 53 -6 62 -5 60 8 -2 9 3 15 10
13 16 -3 61 97 64 141 1 22 3 18 5 -14 2 -26 -3 -77 -12 -114z m-7755 135 c0
-5 -8 -10 -17 -10 -15 0 -16 2 -3 10 19 12 20 12 20 0z m905 -602 c68 -17 173
-78 228 -133 55 -55 117 -162 117 -201 0 -33 -33 -48 -72 -35 -17 6 -34 9 -36
6 -3 -3 0 -5 6 -5 7 0 12 -5 12 -10 0 -7 -8 -7 -22 1 -18 10 -24 8 -35 -7 -7
-10 -13 -14 -13 -8 -1 5 -12 -12 -26 -38 -24 -46 -26 -48 -69 -48 l-45 0 12
28 c7 15 18 35 24 45 10 16 9 25 -8 53 -11 19 -22 34 -25 34 -2 0 -1 -5 2 -10
8 -13 -14 -42 -25 -35 -5 3 -6 -5 -2 -17 5 -21 5 -21 13 -1 11 31 33 42 24 12
-10 -31 -28 -42 -39 -25 -7 10 -13 7 -26 -18 -10 -17 -31 -57 -49 -88 -20 -35
-28 -59 -21 -63 5 -3 10 -11 10 -17 0 -7 -5 -7 -14 1 -11 9 -15 8 -20 -5 -4
-9 -4 -19 -1 -22 3 -3 5 0 5 6 0 7 5 12 11 12 5 0 7 -6 3 -12 -6 -10 -4 -10 8
0 10 8 19 9 22 3 4 -5 2 -12 -4 -16 -5 -3 -10 -11 -10 -18 0 -6 6 -2 14 9 10
13 11 23 4 31 -5 7 -6 18 -2 24 5 8 3 9 -6 4 -8 -5 -11 -4 -7 2 4 6 30 6 69 1
35 -4 115 -7 179 -6 63 1 121 -2 127 -6 12 -7 32 30 32 58 0 7 7 21 15 32 13
17 14 15 15 -31 1 -155 -105 -337 -242 -418 -156 -91 -361 -93 -517 -4 -152
86 -258 270 -249 429 l3 53 14 -57 14 -58 176 -2 c97 -1 192 -2 211 -2 26 0
39 -6 52 -25 10 -14 18 -21 18 -14 0 6 -4 14 -9 17 -5 3 -20 31 -35 61 -17 36
-30 53 -38 49 -7 -4 -8 -3 -4 5 4 6 -2 26 -13 44 -11 18 -27 46 -35 62 -9 17
-16 24 -16 16 0 -11 -3 -11 -16 0 -14 11 -18 10 -30 -5 -11 -16 -10 -24 8 -60
11 -22 26 -44 32 -48 6 -4 -14 -8 -44 -8 l-56 0 -18 44 c-21 50 -53 66 -75 38
-9 -11 -15 -13 -18 -5 -2 7 -12 9 -21 6 -14 -4 -15 -3 -2 6 20 14 8 23 -32 25
-28 1 -33 6 -36 28 -5 40 49 137 111 200 130 132 309 182 492 136z m6066 -54
c89 -26 166 -73 227 -139 69 -74 117 -164 107 -202 -3 -14 0 -60 7 -102 11
-69 13 -73 19 -41 6 34 6 33 8 -11 4 -168 -101 -352 -251 -437 -200 -114 -451
-80 -612 82 -93 94 -147 220 -144 336 1 37 3 45 6 25 7 -44 32 99 25 147 -7
49 42 141 113 212 56 56 165 119 230 135 65 15 205 12 265 -5z m-6388 -324
c-3 -11 -7 -20 -9 -20 -2 0 -4 9 -4 20 0 11 4 20 9 20 5 0 7 -9 4 -20z m-233
0 c0 -5 -2 -10 -4 -10 -3 0 -8 5 -11 10 -3 6 -1 10 4 10 6 0 11 -4 11 -10z
m627 -12 c-3 -8 -6 -5 -6 6 -1 11 2 17 5 13 3 -3 4 -12 1 -19z m-47 -32 c0 -3
-4 -8 -10 -11 -5 -3 -10 -1 -10 4 0 6 5 11 10 11 6 0 10 -2 10 -4z m765 -508
c94 -31 207 -111 191 -136 -3 -6 5 -24 19 -40 25 -30 33 -48 16 -37 -5 3 -12
1 -15 -4 -3 -4 -37 -6 -76 -3 -45 3 -75 1 -84 -7 -10 -9 -16 -8 -26 4 -14 16
-30 20 -30 7 0 -5 11 -14 25 -20 47 -22 122 -102 146 -155 66 -148 -3 -310
-164 -389 l-62 -30 43 5 c23 3 42 1 42 -4 0 -8 46 -5 105 6 11 2 27 0 35 -5
12 -8 10 -14 -15 -40 -28 -29 -24 -43 5 -17 8 6 6 1 -5 -12 -73 -86 -277 -134
-425 -100 -63 14 -164 66 -192 97 -17 20 -18 23 -3 11 41 -33 48 -31 19 4 -16
20 -32 37 -36 37 -5 0 -8 4 -8 9 0 5 11 8 25 7 14 0 25 -5 25 -10 0 -5 6 -3
14 3 10 8 48 11 123 7 71 -3 94 -1 68 4 -154 32 -269 164 -268 306 1 72 26
135 77 191 19 22 32 43 29 47 -4 4 0 4 8 1 9 -3 22 1 29 10 8 10 9 15 1 15 -6
0 -11 -5 -11 -11 0 -8 -4 -8 -15 1 -8 6 -20 8 -26 4 -7 -4 -9 -3 -5 4 3 6 25
9 49 7 24 -2 53 2 67 10 24 13 24 13 -15 9 -78 -8 -235 -11 -235 -4 0 4 14 26
30 48 34 47 38 60 13 42 -10 -7 2 7 27 30 52 50 166 106 242 119 70 12 169 4
243 -21z m4468 -23 c88 -18 180 -67 243 -130 70 -70 92 -104 73 -117 -11 -8
-10 -9 3 -4 14 4 22 -4 33 -31 21 -49 19 -64 -4 -29 -11 17 -17 35 -14 40 4 6
0 5 -9 -2 -12 -10 -41 -12 -102 -9 -47 2 -86 0 -86 -4 0 -5 -7 -5 -17 -2 -11
4 -14 3 -9 -5 10 -17 0 -15 -32 5 -15 10 -3 -5 27 -32 30 -28 59 -49 64 -47 5
1 6 -2 2 -8 -3 -5 2 -22 13 -38 11 -15 27 -42 36 -60 16 -32 16 -33 -12 -75
-16 -23 -42 -54 -57 -69 -24 -24 -26 -30 -14 -45 13 -15 12 -15 -11 -4 -24 11
-24 11 -6 -3 13 -11 23 -13 30 -6 12 12 46 13 46 2 0 -5 27 -6 60 -4 42 3 60
1 60 -7 0 -7 -4 -9 -10 -6 -5 3 -10 4 -10 1 0 -3 4 -7 9 -11 12 -7 43 54 34
68 -3 5 -2 7 3 4 6 -3 16 14 23 39 7 24 17 47 22 50 28 17 -13 -141 -57 -219
-56 -102 -188 -201 -308 -233 -69 -19 -200 -18 -267 2 -160 48 -286 165 -338
315 -24 72 -37 144 -23 135 6 -3 14 -21 17 -38 9 -38 58 -115 63 -99 8 23 22
10 17 -16 -5 -26 -5 -26 6 -6 8 15 21 21 45 21 19 0 34 -4 34 -8 0 -4 9 -6 20
-3 11 3 17 10 14 15 -4 6 4 5 16 -2 15 -8 25 -9 32 -2 6 6 18 8 27 4 9 -3 -2
12 -24 34 -23 21 -56 60 -74 87 l-32 47 31 58 c17 32 43 72 58 89 29 31 36 69
15 77 -7 3 -19 -1 -27 -9 -17 -17 -30 -20 -21 -5 3 6 2 10 -4 10 -5 0 -12 -6
-14 -12 -4 -8 -6 -7 -6 4 -1 9 7 19 17 21 9 3 5 4 -10 4 -15 -1 -24 -5 -21
-10 3 -4 -12 -7 -33 -5 -31 2 -40 8 -46 28 -7 24 -8 24 -4 -3 2 -15 -1 -30 -7
-34 -6 -3 -7 -1 -3 5 12 20 -13 13 -34 -8 -16 -16 -20 -17 -20 -5 0 8 5 15 12
15 6 0 9 3 5 6 -10 11 23 65 35 58 6 -4 8 -3 5 3 -14 23 78 117 158 162 114
65 231 83 358 56z m324 -307 c-3 -8 -6 -5 -6 6 -1 11 2 17 5 13 3 -3 4 -12 1
-19z m-3794 -274 c33 -8 83 -27 111 -41 63 -32 191 -157 182 -178 -3 -8 -1
-14 5 -12 14 3 53 -89 45 -109 -6 -14 -13 -11 -43 22 -29 31 -34 34 -28 16 7
-23 5 -24 -47 -22 -71 3 -72 3 -57 -17 12 -17 12 -17 -6 -1 -16 15 -17 19 -4
35 12 16 12 17 -2 6 -9 -7 -19 -10 -23 -6 -4 4 5 -18 19 -50 21 -44 27 -74 28
-139 1 -55 -2 -87 -10 -96 -7 -7 -13 -19 -13 -25 0 -7 5 -5 10 4 7 12 24 15
75 14 37 -1 65 2 65 8 0 5 6 4 14 -3 12 -9 16 -5 21 27 3 21 11 56 18 78 l12
40 3 -63 c7 -146 -81 -311 -214 -403 -66 -45 -166 -79 -253 -85 -289 -22 -543
214 -541 500 l1 41 18 -55 c10 -30 22 -68 26 -85 l7 -30 14 25 c13 25 13 24 8
-10 -5 -34 -5 -34 8 -10 11 20 20 24 48 22 19 -1 37 -7 39 -13 2 -6 10 -1 18
10 9 14 15 52 16 114 2 72 7 101 23 132 18 33 19 43 8 53 -17 16 -32 16 -16 0
7 -7 12 -19 12 -28 0 -11 -6 -8 -19 9 -16 21 -21 22 -52 13 -19 -7 -44 -11
-57 -10 -26 3 -47 32 -36 50 5 7 3 8 -6 3 -34 -21 52 103 104 151 128 116 304
161 469 118z m2442 -19 c97 -25 164 -64 235 -134 62 -63 120 -158 120 -198 0
-15 -2 -14 -16 3 -8 10 -13 13 -9 7 3 -7 2 -13 -4 -13 -5 0 -13 9 -16 21 -6
19 -14 20 -93 18 -76 -2 -87 0 -93 17 -7 18 -8 18 -10 -1 -1 -11 -1 -32 0 -47
1 -14 -6 -43 -15 -65 -9 -21 -16 -41 -16 -46 1 -4 -1 -6 -5 -5 -11 4 -85 -43
-79 -49 2 -3 38 11 80 31 41 20 77 36 80 36 14 0 46 -46 46 -66 0 -18 -13 -27
-67 -49 -137 -55 -129 -46 -70 -68 29 -10 77 -21 107 -24 30 -2 65 -5 77 -6
11 -1 19 -5 16 -9 -2 -5 3 -8 11 -8 9 0 16 5 16 11 0 5 4 8 10 4 5 -3 7 -13 4
-23 -4 -9 3 -4 14 12 11 16 23 44 27 62 3 19 12 48 20 66 l14 33 1 -32 c1
-112 -58 -243 -150 -334 -202 -200 -509 -199 -711 1 -93 92 -151 223 -148 338
1 36 1 36 9 9 5 -16 6 -36 3 -44 -4 -11 -2 -14 5 -9 7 4 12 2 12 -6 0 -7 7
-26 15 -42 8 -15 13 -31 11 -35 -2 -3 2 -15 10 -26 8 -10 14 -13 14 -6 0 7 4
9 10 6 6 -4 7 1 3 11 -5 13 -2 15 16 9 13 -4 28 -2 36 5 12 10 15 10 15 0 0
-7 6 -10 14 -7 7 3 19 0 25 -6 9 -9 11 -8 6 4 -5 13 1 18 24 21 17 2 33 0 35
-6 3 -7 7 -8 13 -1 4 6 17 12 28 14 11 1 31 9 44 16 23 11 19 14 -67 41 -51
16 -94 34 -96 41 -8 21 15 72 34 78 11 3 29 0 42 -8 31 -20 128 -50 135 -43 3
3 -9 12 -28 20 -45 19 -82 56 -99 96 -12 29 -12 39 3 79 12 36 13 42 1 27 -7
-11 -14 -26 -14 -33 0 -7 -5 -13 -11 -13 -6 0 -8 -9 -4 -22 7 -23 7 -23 -8 -3
-9 11 -11 22 -6 23 5 2 9 22 9 44 0 23 -3 38 -7 35 -3 -4 -6 -20 -5 -37 1 -36
-5 -38 -18 -7 -7 17 -9 18 -9 4 -1 -25 -89 -20 -97 6 -5 15 -7 15 -21 2 -8 -9
-13 -21 -10 -28 3 -8 -4 -13 -19 -13 -13 0 -24 1 -24 2 0 16 44 93 50 89 6 -3
7 1 4 9 -9 24 121 148 191 181 116 55 238 69 350 40z m641 -37 c10 -12 13 -18
5 -13 -8 4 -16 2 -21 -5 -5 -8 -8 -3 -7 13 1 15 2 27 3 27 0 0 9 -10 20 -22z
m48 -23 c-7 -16 -24 -21 -24 -6 0 8 7 13 27 20 1 1 0 -6 -3 -14z m-4489 -103
c-3 -3 -11 0 -18 7 -9 10 -8 11 6 5 10 -3 15 -9 12 -12z m425 4 c-7 -7 -13 -7
-20 0 -6 6 -3 10 10 10 13 0 16 -4 10 -10z m-367 -23 c-7 -2 -19 -2 -25 0 -7
3 -2 5 12 5 14 0 19 -2 13 -5z m2522 -29 c33 -8 87 -30 120 -49 95 -53 219
-194 199 -227 -5 -7 -3 -8 6 -3 8 5 11 3 8 -6 -7 -19 -59 -13 -75 8 -12 15
-13 15 -13 -3 0 -15 -2 -16 -9 -5 -8 12 -12 11 -27 -3 -13 -14 -19 -15 -25 -4
-5 7 -17 14 -28 14 -11 1 -18 -3 -15 -7 3 -5 1 -9 -5 -9 -5 0 1 -19 14 -42 43
-75 27 -148 -31 -148 -22 0 -104 28 -104 36 0 1 11 24 25 50 16 30 25 62 24
88 -1 39 -2 40 -9 11 l-8 -30 -1 30 c-1 23 -3 27 -11 15 -6 -10 -10 -11 -10
-2 0 6 -4 12 -10 12 -5 0 -7 -15 -4 -32 4 -30 4 -31 -6 -9 -15 34 -21 21 -10
-20 19 -65 13 -96 -27 -141 -38 -41 -29 -44 15 -5 21 20 24 20 57 4 20 -9 52
-17 72 -17 l36 0 -7 -57 c-4 -31 -12 -63 -18 -70 -6 -7 -7 -13 -3 -13 4 0 14
8 21 18 12 15 12 15 7 -5 -5 -23 10 -32 22 -14 3 6 14 8 25 6 11 -2 22 1 25 6
4 5 11 6 17 3 36 -22 100 -5 90 24 -2 6 1 12 7 12 6 0 11 9 11 20 0 11 4 20 9
20 6 0 12 15 14 33 3 23 4 18 5 -19 4 -108 -51 -230 -147 -325 -199 -198 -512
-197 -712 1 -84 83 -151 236 -147 335 0 23 2 25 5 8 2 -13 8 -23 13 -23 5 0
11 -12 15 -27 3 -16 14 -38 25 -50 16 -20 28 -23 93 -23 51 0 77 -4 81 -12 3
-7 3 -2 1 12 -6 24 -5 24 10 -3 18 -32 33 -30 16 1 -18 34 -12 49 9 22 l20
-25 -15 44 c-8 24 -15 56 -15 72 0 26 3 29 35 29 19 0 50 7 69 17 34 16 35 16
66 -11 53 -44 87 -58 110 -46 27 15 25 22 -5 14 -29 -7 -85 24 -110 63 -14 21
-16 40 -12 92 3 36 1 74 -4 83 -7 12 -6 18 1 18 6 0 8 5 5 11 -8 12 -16 7 -19
-14 -2 -18 -25 -47 -37 -47 -4 0 -10 10 -12 23 -3 14 -5 10 -6 -14 0 -20 9
-56 24 -84 13 -27 22 -52 19 -57 -9 -14 -58 -35 -79 -33 -11 1 -30 2 -41 3
-17 2 -23 11 -28 44 -6 34 -2 51 18 89 18 36 21 50 13 58 -8 6 -18 5 -29 -3
-12 -9 -41 -12 -94 -8 -54 3 -78 1 -84 -7 -5 -10 -9 -9 -13 2 -9 23 62 134
119 186 56 51 137 96 211 116 66 18 187 18 258 -1z m-1792 -83 c13 -26 13 -28
-5 -23 -23 6 -30 16 -22 36 8 22 10 21 27 -13z m112 -41 c3 -6 -1 -7 -9 -4
-18 7 -21 14 -7 14 6 0 13 -4 16 -10z m1301 -178 c0 -10 -6 -24 -13 -31 -16
-14 -16 -10 -3 23 11 31 16 33 16 8z m151 -24 c-3 -7 -5 -2 -5 12 0 14 2 19 5
13 2 -7 2 -19 0 -25z m393 28 c0 -3 -4 -8 -10 -11 -5 -3 -10 -1 -10 4 0 6 5
11 10 11 6 0 10 -2 10 -4z m172 -28 c-7 -7 -12 -8 -12 -2 0 14 12 26 19 19 2
-3 -1 -11 -7 -17z m-602 -8 c0 -5 -5 -10 -11 -10 -5 0 -7 5 -4 10 3 6 8 10 11
10 2 0 4 -4 4 -10z m-1413 -22 c-3 -8 -6 -5 -6 6 -1 11 2 17 5 13 3 -3 4 -12
1 -19z m1714 -31 c-10 -9 -11 -8 -5 6 3 10 9 15 12 12 3 -3 0 -11 -7 -18z
m889 -7 c-8 -5 -19 -10 -25 -10 -5 0 -3 5 5 10 8 5 20 10 25 10 6 0 3 -5 -5
-10z m425 0 c-3 -5 -12 -10 -18 -10 -7 0 -6 4 3 10 19 12 23 12 15 0z m192
-32 c-3 -8 -6 -5 -6 6 -1 11 2 17 5 13 3 -3 4 -12 1 -19z"/>
<path d="M4429 8193 c-13 -16 -12 -17 4 -4 9 7 17 15 17 17 0 8 -8 3 -21 -13z"/>
<path d="M4708 8153 c7 -3 16 -2 19 1 4 3 -2 6 -13 5 -11 0 -14 -3 -6 -6z"/>
<path d="M4514 8139 c-3 -6 -3 -13 0 -16 3 -4 6 -1 6 5 0 6 7 9 15 6 8 -4 15
-4 15 -1 0 11 -30 16 -36 6z"/>
<path d="M4363 8133 c-7 -3 -13 -9 -13 -15 0 -7 5 -7 13 1 8 6 16 8 19 5 3 -3
8 -1 12 4 5 9 -10 12 -31 5z"/>
<path d="M4518 8113 c-10 -2 -18 -9 -18 -15 0 -5 7 -7 16 -4 9 3 20 6 25 6 5
0 9 5 9 10 0 10 -3 11 -32 3z"/>
<path d="M4120 8100 c0 -5 5 -10 10 -10 6 0 10 5 10 10 0 6 -4 10 -10 10 -5 0
-10 -4 -10 -10z"/>
<path d="M4470 7961 c-41 -13 -50 -19 -37 -24 10 -4 29 -7 43 -7 15 0 22 -5
18 -13 -3 -8 2 -14 11 -14 19 0 19 11 0 31 -8 8 -11 17 -6 20 5 3 12 -2 16
-12 7 -16 8 -15 15 3 17 41 19 40 -60 16z m7 -17 c-3 -3 -12 -4 -19 -1 -8 3
-5 6 6 6 11 1 17 -2 13 -5z"/>
<path d="M4358 7926 c-49 -15 -60 -28 -13 -15 21 6 54 8 74 4 l36 -6 -29 16
c-15 8 -29 15 -30 14 0 -1 -18 -6 -38 -13z"/>
<path d="M5777 7903 c-14 -14 15 -43 41 -42 l27 2 -28 4 c-19 3 -27 9 -23 18
5 15 -7 29 -17 18z"/>
<path d="M5514 7888 c-4 -7 -4 -10 1 -6 4 4 15 2 23 -5 12 -10 14 -9 11 2 -7
20 -26 25 -35 9z"/>
<path d="M5560 7888 c0 -20 90 -34 102 -16 12 20 10 24 -12 24 -22 0 -27 -11
-7 -20 6 -3 -4 -3 -23 0 -19 4 -41 11 -47 16 -9 8 -13 6 -13 -4z"/>
<path d="M5915 7890 c-13 -6 -15 -9 -5 -9 8 0 22 4 30 9 18 12 2 12 -25 0z"/>
<path d="M5845 7880 c3 -5 16 -10 28 -9 21 0 21 1 2 9 -28 12 -37 12 -30 0z"/>
<path d="M5445 7651 c-3 -5 -2 -12 3 -15 5 -3 9 1 9 9 0 17 -3 19 -12 6z"/>
<path d="M5940 7636 c0 -2 8 -10 18 -17 15 -13 16 -12 3 4 -13 16 -21 21 -21
13z"/>
<path d="M5818 7603 c7 -3 16 -2 19 1 4 3 -2 6 -13 5 -11 0 -14 -3 -6 -6z"/>
<path d="M2019 7343 c-13 -16 -12 -17 4 -4 9 7 17 15 17 17 0 8 -8 3 -21 -13z"/>
<path d="M2170 7316 c0 -2 8 -10 18 -17 15 -13 16 -12 3 4 -13 16 -21 21 -21
13z"/>
<path d="M1976 7293 c-6 -14 -5 -15 5 -6 7 7 10 15 7 18 -3 3 -9 -2 -12 -12z"/>
<path d="M2204 7272 c-6 -4 -14 -23 -17 -42 -4 -19 -3 -30 1 -23 4 7 13 9 21
4 11 -7 9 -10 -8 -16 -11 -3 -21 -10 -21 -15 0 -5 16 0 36 12 19 11 50 24 67
28 28 7 29 8 7 9 -14 0 -31 -3 -39 -8 -7 -5 -21 -6 -31 -4 -15 4 -17 10 -10
34 5 16 8 29 7 29 -1 0 -7 -4 -13 -8z"/>
<path d="M1955 7260 c3 -5 8 -10 11 -10 2 0 4 5 4 10 0 6 -5 10 -11 10 -5 0
-7 -4 -4 -10z"/>
<path d="M2485 7228 c8 -24 16 -52 18 -63 2 -11 4 3 3 32 0 28 -4 46 -8 40 -5
-8 -8 -6 -8 5 0 9 -4 19 -9 23 -6 3 -4 -14 4 -37z"/>
<path d="M2107 7237 c42 -16 43 -17 58 -79 14 -52 14 -52 8 -8 -3 25 -10 53
-15 63 -9 18 -48 38 -71 36 -7 0 2 -6 20 -12z"/>
<path d="M2071 7136 c2 -2 15 -9 29 -15 24 -11 24 -11 6 3 -16 13 -49 24 -35
12z"/>
<path d="M1936 7103 c-6 -14 -5 -15 5 -6 7 7 10 15 7 18 -3 3 -9 -2 -12 -12z"/>
<path d="M2215 7105 c-39 -17 -32 -17 30 0 30 8 40 14 25 14 -14 0 -38 -6 -55
-14z"/>
<path d="M2501 7104 c0 -11 3 -14 6 -6 3 7 2 16 -1 19 -3 4 -6 -2 -5 -13z"/>
<path d="M6750 7293 c-3 -29 -1 -48 3 -44 5 5 7 28 5 52 l-3 44 -5 -52z"/>
<path d="M6497 7320 c9 -10 8 -18 -4 -37 -14 -21 -14 -23 1 -17 9 3 14 10 11
14 -3 5 1 13 10 17 12 7 11 11 -8 22 -15 9 -18 10 -10 1z"/>
<path d="M6957 7319 c7 -7 15 -10 18 -7 3 3 -2 9 -12 12 -14 6 -15 5 -6 -5z"/>
<path d="M6306 7277 c3 -10 9 -15 12 -12 3 3 0 11 -7 18 -10 9 -11 8 -5 -6z"/>
<path d="M6770 7236 c0 -3 9 -10 20 -16 11 -6 20 -8 20 -6 0 3 -9 10 -20 16
-11 6 -20 8 -20 6z"/>
<path d="M6914 7224 c-18 -14 -18 -15 4 -4 12 6 22 13 22 15 0 8 -5 6 -26 -11z"/>
<path d="M6580 7226 c0 -3 9 -10 20 -16 11 -6 20 -8 20 -6 0 3 -9 10 -20 16
-11 6 -20 8 -20 6z"/>
<path d="M6868 7196 c-15 -11 -18 -27 -16 -87 l2 -74 3 70 c3 46 10 76 20 87
19 21 15 23 -9 4z"/>
<path d="M6640 7135 l5 -60 3 50 c2 27 7 54 12 60 6 7 3 11 -8 11 -15 0 -16
-9 -12 -61z"/>
<path d="M6632 7042 c-11 -25 -11 -25 4 -10 9 9 15 21 13 27 -2 6 -10 -2 -17
-17z"/>
<path d="M6779 6993 c-13 -16 -12 -17 4 -4 9 7 17 15 17 17 0 8 -8 3 -21 -13z"/>
<path d="M1190 6446 c7 -7 13 -7 20 0 6 6 3 10 -10 10 -13 0 -16 -4 -10 -10z"/>
<path d="M1649 6433 c-13 -16 -12 -17 4 -4 9 7 17 15 17 17 0 8 -8 3 -21 -13z"/>
<path d="M1698 6443 c7 -3 16 -2 19 1 4 3 -2 6 -13 5 -11 0 -14 -3 -6 -6z"/>
<path d="M1295 6430 c-3 -5 -1 -10 4 -10 6 0 11 5 11 10 0 6 -2 10 -4 10 -3 0
-8 -4 -11 -10z"/>
<path d="M1390 6419 c0 -6 -6 -9 -14 -6 -23 9 -44 -57 -23 -70 6 -4 7 4 3 21
-5 22 -2 28 20 36 21 8 31 7 48 -7 16 -14 15 -11 -3 10 -27 30 -31 32 -31 16z"/>
<path d="M1759 6404 l-24 -27 28 18 c15 9 27 21 27 26 0 14 -5 11 -31 -17z"/>
<path d="M1326 6408 c3 -5 10 -6 15 -3 13 9 11 12 -6 12 -8 0 -12 -4 -9 -9z"/>
<path d="M1498 6409 c-10 -5 -18 -15 -18 -20 0 -6 7 -3 16 6 10 10 23 13 33 9
28 -12 54 -9 58 6 4 13 3 13 -6 1 -8 -12 -14 -13 -36 -3 -30 14 -26 14 -47 1z"/>
<path d="M1556 6364 c-4 -9 -4 -19 -1 -22 2 -3 7 3 11 12 4 9 4 19 1 22 -2 3
-7 -3 -11 -12z"/>
<path d="M1228 6183 c7 -3 16 -2 19 1 4 3 -2 6 -13 5 -11 0 -14 -3 -6 -6z"/>
<path d="M1556 6167 c3 -10 9 -15 12 -12 3 3 0 11 -7 18 -10 9 -11 8 -5 -6z"/>
<path d="M1159 6123 c-13 -16 -12 -17 4 -4 16 13 21 21 13 21 -2 0 -10 -8 -17
-17z"/>
<path d="M7381 6397 c-1 -24 3 -28 21 -25 12 2 23 9 24 16 1 7 0 8 -3 2 -9
-18 -32 -11 -36 13 -4 18 -4 17 -6 -6z"/>
<path d="M7380 6095 c0 -8 2 -15 4 -15 2 0 6 7 10 15 3 8 1 15 -4 15 -6 0 -10
-7 -10 -15z"/>
<path d="M1140 5316 c0 -2 7 -7 16 -10 8 -3 12 -2 9 4 -6 10 -25 14 -25 6z"/>
<path d="M1451 5274 c0 -11 3 -14 6 -6 3 7 2 16 -1 19 -3 4 -6 -2 -5 -13z"/>
<path d="M1245 5019 c-4 -6 -5 -12 -2 -15 2 -3 7 2 10 11 7 17 1 20 -8 4z"/>
<path d="M7645 5290 c-10 -11 -13 -20 -8 -20 13 0 38 29 31 35 -3 3 -13 -4
-23 -15z"/>
<path d="M7740 5302 c0 -5 7 -15 15 -22 8 -7 15 -9 15 -6 0 4 -7 14 -15 22 -8
9 -15 11 -15 6z"/>
<path d="M7716 5286 c6 -14 4 -17 -6 -11 -10 6 -11 2 -7 -16 3 -13 1 -31 -4
-39 -9 -12 -10 -12 -5 3 3 11 3 23 0 29 -9 14 -24 -11 -24 -40 0 -26 34 -97
51 -108 8 -5 9 -3 4 6 -12 19 -16 122 -5 115 6 -3 7 1 4 10 -4 10 -2 15 6 13
7 -2 15 3 17 10 4 12 1 12 -18 1 -22 -11 -23 -11 -10 5 11 13 12 19 2 29 -10
9 -11 8 -5 -7z"/>
<path d="M7863 5040 c-20 -12 -33 -28 -33 -40 0 -12 4 -18 10 -15 6 4 7 -1 3
-11 -5 -14 -3 -16 11 -11 10 4 15 3 11 -3 -3 -6 2 -10 12 -10 15 0 16 -2 3
-10 -8 -5 -10 -10 -4 -10 6 0 18 7 25 16 12 15 15 14 31 -6 24 -30 23 -18 -4
33 -13 23 -25 52 -28 64 l-5 23 -32 -20z m57 -64 c0 -2 -7 -7 -16 -10 -8 -3
-12 -2 -9 4 6 10 25 14 25 6z"/>
<path d="M8013 4950 c-13 -5 -23 -15 -23 -22 0 -9 3 -9 10 2 8 12 10 10 11
-10 1 -21 2 -22 6 -5 3 11 10 26 15 33 12 14 11 14 -19 2z"/>
<path d="M7904 4926 c-3 -15 -4 -30 0 -33 3 -4 6 1 6 10 0 8 6 17 13 20 9 3 9
7 0 17 -9 10 -13 7 -19 -14z"/>
<path d="M940 4075 c-7 -9 -11 -17 -9 -20 3 -2 10 5 17 15 14 24 10 26 -8 5z"/>
<path d="M1240 4074 c0 -1 6 -7 14 -13 10 -9 15 -8 19 2 3 8 -3 13 -14 13 -11
0 -19 -1 -19 -2z"/>
<path d="M1140 3980 c-8 -5 -17 -7 -21 -5 -3 3 -19 -7 -33 -20 -16 -15 -39
-25 -57 -25 -36 0 -92 -27 -84 -41 4 -5 1 -8 -6 -7 -6 2 -18 -13 -26 -32 -12
-32 -12 -33 2 -16 8 11 15 24 15 29 0 4 4 6 9 3 5 -3 14 1 21 9 31 37 128 26
175 -21 36 -36 31 -11 -6 31 -23 26 -37 34 -51 29 -19 -6 -18 -5 1 18 32 37
98 37 142 1 l33 -28 -17 26 c-14 21 -39 39 -77 55 -3 2 -12 -1 -20 -6z"/>
<path d="M7740 4046 c0 -2 11 -6 25 -8 13 -3 22 -1 19 3 -5 9 -44 13 -44 5z"/>
<path d="M8039 4033 c-13 -16 -12 -17 4 -4 16 13 21 21 13 21 -2 0 -10 -8 -17
-17z"/>
<path d="M7792 3920 c0 -19 2 -27 5 -17 2 9 2 25 0 35 -3 9 -5 1 -5 -18z"/>
<path d="M7925 3710 c-3 -5 -21 -10 -39 -10 -26 0 -35 -6 -45 -27 l-13 -28 22
23 c11 12 31 22 44 22 13 0 29 7 36 15 7 8 10 15 7 15 -3 0 -9 -4 -12 -10z"/>
<path d="M1696 2910 c4 -8 16 -28 27 -44 17 -24 21 -26 29 -12 6 10 5 23 -2
34 -9 14 -10 13 -4 -8 5 -23 3 -22 -26 10 -17 19 -28 28 -24 20z"/>
<path d="M1847 2873 c6 -26 11 -27 33 -12 13 9 13 10 0 6 -8 -2 -20 3 -27 12
-10 14 -11 13 -6 -6z"/>
<path d="M1313 2873 c9 -2 25 -2 35 0 9 3 1 5 -18 5 -19 0 -27 -2 -17 -5z"/>
<path d="M1513 2873 c9 -2 25 -2 35 0 9 3 1 5 -18 5 -19 0 -27 -2 -17 -5z"/>
<path d="M1105 2860 c-16 -7 -17 -9 -3 -9 9 -1 20 4 23 9 7 11 7 11 -20 0z"/>
<path d="M1550 2600 c6 -11 13 -20 16 -20 2 0 0 9 -6 20 -6 11 -13 20 -16 20
-2 0 0 -9 6 -20z"/>
<path d="M1286 2595 c-9 -26 -7 -32 5 -12 6 10 9 21 6 23 -2 3 -7 -2 -11 -11z"/>
<path d="M2502 2170 c7 -11 16 -20 20 -20 15 0 8 15 -12 28 -19 12 -20 11 -8
-8z"/>
<path d="M1816 2083 c-6 -14 -5 -15 5 -6 7 7 10 15 7 18 -3 3 -9 -2 -12 -12z"/>
<path d="M2083 2054 c-77 -87 -10 -224 110 -224 41 0 53 5 88 38 59 55 63 106
14 192 -11 19 -15 21 -15 8 0 -10 -5 -18 -11 -18 -5 0 -8 4 -4 9 3 5 1 12 -5
16 -5 3 -10 3 -10 -2 0 -9 -121 -10 -136 -1 -5 4 -19 -5 -31 -18z"/>
<path d="M2230 1470 c-11 -8 -7 -9 15 -4 37 8 45 14 19 14 -10 0 -26 -5 -34
-10z"/>
<path d="M2150 1460 c-9 -6 -10 -10 -3 -10 6 0 15 5 18 10 8 12 4 12 -15 0z"/>
<path d="M6270 2010 c-6 -11 -8 -20 -6 -20 3 0 10 9 16 20 6 11 8 20 6 20 -3
0 -10 -9 -16 -20z"/>
<path d="M6638 2023 c7 -3 16 -2 19 1 4 3 -2 6 -13 5 -11 0 -14 -3 -6 -6z"/>
<path d="M6760 2026 c0 -2 11 -6 25 -8 13 -3 22 -1 19 3 -5 9 -44 13 -44 5z"/>
<path d="M6565 2000 c-3 -6 1 -7 9 -4 18 7 21 14 7 14 -6 0 -13 -4 -16 -10z"/>
<path d="M6500 1965 c-7 -8 -8 -15 -2 -15 5 0 15 7 22 15 7 8 8 15 2 15 -5 0
-15 -7 -22 -15z"/>
<path d="M6548 1878 c-7 -13 -11 -27 -10 -31 1 -5 -2 -6 -7 -3 -11 7 -47 -35
-57 -66 -11 -37 134 -159 188 -158 7 1 0 7 -17 14 -16 8 -41 24 -55 37 -13 13
-27 23 -30 22 -3 -1 -6 6 -7 15 -1 9 -5 37 -8 62 -5 29 -2 60 8 88 16 46 14
54 -5 20z"/>
<path d="M6873 1882 c10 -10 14 -22 10 -25 -3 -4 -2 -7 3 -7 16 0 7 -98 -13
-138 -10 -20 -32 -46 -50 -57 -49 -31 -39 -38 15 -11 43 22 142 110 142 127 0
9 -66 88 -93 111 -26 23 -35 23 -14 0z"/>
<path d="M6718 1833 c-2 -19 -13 -32 -33 -43 -16 -8 -32 -17 -35 -18 -11 -8
43 -42 65 -42 26 0 65 43 65 71 0 20 -33 59 -49 59 -5 0 -11 -12 -13 -27z"/>
<path d="M6698 1613 c12 -2 32 -2 45 0 12 2 2 4 -23 4 -25 0 -35 -2 -22 -4z"/>
<path d="M6898 1583 c7 -3 16 -2 19 1 4 3 -2 6 -13 5 -11 0 -14 -3 -6 -6z"/>
<path d="M6560 1560 c0 -5 5 -10 11 -10 5 0 7 5 4 10 -3 6 -8 10 -11 10 -2 0
-4 -4 -4 -10z"/>
<path d="M3047 1403 c-38 -57 -51 -115 -37 -173 17 -70 97 -159 116 -128 5 7
3 8 -6 3 -9 -6 -11 -4 -6 4 9 14 21 6 21 -12 0 -17 28 -15 32 3 4 13 3 13 -6
0 -6 -8 -11 -10 -11 -5 0 6 5 16 10 21 8 8 -5 32 -42 81 -29 39 -56 69 -60 67
-3 -2 -4 6 0 18 3 12 1 19 -5 15 -5 -3 -8 7 -6 26 3 26 1 28 -6 12 -9 -18 -10
-18 -10 7 -1 15 5 33 12 40 15 15 40 58 34 58 -2 0 -16 -17 -30 -37z"/>
<path d="M3216 1415 c4 -8 10 -15 15 -15 5 0 9 -5 9 -11 0 -6 -7 -8 -16 -5 -8
3 -12 2 -9 -4 3 -6 2 -10 -3 -10 -16 0 -22 13 -11 27 7 8 8 13 1 13 -15 0 -22
-26 -9 -39 28 -28 66 4 45 38 -15 24 -30 28 -22 6z"/>
<path d="M2940 1414 c0 -20 27 -37 36 -23 4 7 3 9 -4 5 -6 -3 -15 2 -21 11 -6
10 -11 13 -11 7z"/>
<path d="M3312 1400 c0 -14 2 -19 5 -12 2 6 2 18 0 25 -3 6 -5 1 -5 -13z"/>
<path d="M3456 1407 c3 -10 9 -15 12 -12 3 3 0 11 -7 18 -10 9 -11 8 -5 -6z"/>
<path d="M3496 1412 c-3 -5 1 -9 9 -9 8 0 12 4 9 9 -3 4 -7 8 -9 8 -2 0 -6 -4
-9 -8z"/>
<path d="M2895 1400 c3 -5 8 -10 11 -10 2 0 4 5 4 10 0 6 -5 10 -11 10 -5 0
-7 -4 -4 -10z"/>
<path d="M3112 1380 c0 -19 2 -28 5 -20 3 8 11 21 17 29 8 11 8 13 -1 8 -6 -4
-14 -1 -16 5 -3 7 -5 -3 -5 -22z"/>
<path d="M3376 1392 c-3 -5 1 -9 9 -9 8 0 12 4 9 9 -3 4 -7 8 -9 8 -2 0 -6 -4
-9 -8z"/>
<path d="M3311 1354 c0 -11 3 -14 6 -6 3 7 2 16 -1 19 -3 4 -6 -2 -5 -13z"/>
<path d="M3379 1335 c-1 -22 -3 -48 -3 -57 0 -9 -3 -15 -8 -12 -4 3 -8 1 -8
-4 0 -5 -20 -35 -45 -67 -32 -41 -45 -66 -43 -84 4 -30 21 -37 42 -16 9 9 16
13 16 9 0 -3 7 -1 15 6 8 7 12 17 8 24 -3 6 -3 8 2 4 9 -9 35 9 35 24 0 5 -6
6 -12 2 -8 -4 -10 -3 -5 2 5 5 14 9 20 9 15 0 36 60 36 105 0 19 -7 49 -15 65
-8 17 -12 22 -9 12 3 -11 2 -24 -2 -30 -5 -7 -10 0 -14 18 -6 29 -7 28 -10
-10z m-79 -226 c0 -10 -4 -19 -9 -19 -5 0 -8 11 -7 24 1 28 16 24 16 -5z"/>
<path d="M5710 1375 c14 -8 30 -14 35 -14 6 0 -1 6 -15 14 -14 8 -29 14 -35
14 -5 0 1 -6 15 -14z"/>
<path d="M5675 1368 c4 -11 -2 -17 -22 -21 -36 -7 -43 0 -12 12 20 7 18 9 -17
7 -23 0 -40 -5 -37 -10 3 -5 0 -6 -8 -4 -8 3 -19 -2 -26 -11 -15 -21 11 -75
33 -67 8 3 13 2 10 -3 -9 -15 61 -23 101 -11 51 14 67 25 58 40 -5 9 -4 11 3
6 7 -4 13 -2 14 3 4 29 2 36 -7 37 -23 2 -71 17 -83 27 -9 7 -11 6 -7 -5z"/>
<path d="M6105 1370 c-3 -5 -1 -10 4 -10 6 0 11 5 11 10 0 6 -2 10 -4 10 -3 0
-8 -4 -11 -10z"/>
<path d="M5601 1151 c-11 -7 -4 -12 27 -21 36 -9 48 -8 84 10 l43 20 -35 -5
c-48 -8 -62 -8 -85 -1 -11 4 -26 2 -34 -3z"/>
<path d="M5970 1020 c8 -5 20 -10 25 -10 6 0 3 5 -5 10 -8 5 -19 10 -25 10 -5
0 -3 -5 5 -10z"/>
<path d="M5631 999 c-13 -5 -21 -12 -18 -15 3 -3 18 1 34 10 31 17 21 20 -16
5z"/>
<path d="M5725 990 c27 -12 43 -12 25 0 -8 5 -22 9 -30 9 -10 0 -8 -3 5 -9z"/>
<path d="M5665 980 c-3 -5 1 -10 10 -10 9 0 13 5 10 10 -3 6 -8 10 -10 10 -2
0 -7 -4 -10 -10z"/>
<path d="M4026 1193 c-6 -14 -5 -15 5 -6 7 7 10 15 7 18 -3 3 -9 -2 -12 -12z"/>
<path d="M4220 801 c0 -6 4 -13 10 -16 6 -3 7 1 4 9 -7 18 -14 21 -14 7z"/>
<path d="M4666 793 c-6 -14 -5 -15 5 -6 7 7 10 15 7 18 -3 3 -9 -2 -12 -12z"/>
</g>
</svg>
